<svg width="47" height="47" viewBox="0 0 47 47" fill="none" xmlns="http://www.w3.org/2000/svg">
<path d="M29.9969 39.4664C39.0058 35.6874 43.2454 25.3208 39.4664 16.312C35.6874 7.30312 25.3208 3.0635 16.3119 6.84251C7.30311 10.6215 3.06349 20.9881 6.84249 29.9969C10.6215 39.0058 20.9881 43.2454 29.9969 39.4664Z" fill="black"/>
<path d="M28.1962 14.8141C28.1962 17.5941 25.9362 19.8541 23.1562 19.8541C20.3762 19.8541 18.1162 17.5941 18.1162 14.8141C18.1162 12.0341 20.3762 9.77408 23.1562 9.77408C25.9362 9.77408 28.1962 12.0341 28.1962 14.8141Z" fill="white"/>
<path d="M23.1562 21.5841C17.9962 21.5841 13.8062 25.7741 13.8062 30.9341C13.8062 32.2841 14.9062 33.3841 16.2562 33.3841H30.0462C31.3962 33.3841 32.4962 32.2841 32.4962 30.9341C32.5062 25.7641 28.3162 21.5841 23.1562 21.5841Z" fill="white"/>
</svg>
